# xmcd
# 
# Track frame offsets:
#     150
#     13375
#     29960
#     44842
#     63272
#     77247
#     89485
#     105552
#     125690
#     141607
#     154912
# 
# Disc length: 2297
# 
# Revision: 2
# Processed by: cddbd v1.5.2PL0 Copyright (c) Steve Scherf et al.
# Submitted via: fre:ac v1.0.31
# 
DISCID=aa08f70b
DTITLE=The Nitty Gritty Dirt Band - Acoustic
DYEAR=1994
DGENRE=Country
TTITLE0=How Long
TTITLE1=Cupid's Got a Gun
TTITLE2=Sarah in The Summer
TTITLE3=Let it Roll
TTITLE4=Hello, I am Your Heart
TTITLE5=Love Will Find a Way
TTITLE6=Tryin' Times
TTITLE7=This Train Keeps Rolling Along
TTITLE8=Badlands
TTITLE9=One Sure Honest Line
TTITLE10=The Broken Road
EXTD=
EXTT0=
EXTT1=
EXTT2=
EXTT3=
EXTT4=
EXTT5=
EXTT6=
EXTT7=
EXTT8=
EXTT9=
EXTT10=
PLAYORDER=
